<?xml version="1.0" standalone="no"?>
<!DOCTYPE svg PUBLIC "-//W3C//DTD SVG 20010904//EN"
 "http://www.w3.org/TR/2001/REC-SVG-20010904/DTD/svg10.dtd">
<svg version="1.0" xmlns="http://www.w3.org/2000/svg"
 width="300.000000pt" height="301.000000pt" viewBox="0 0 300.000000 301.000000"
 preserveAspectRatio="xMidYMid meet">
<metadata>
Created by potrace 1.10, written by Peter Selinger 2001-2011
</metadata>
<g transform="translate(0.000000,301.000000) scale(0.100000,-0.100000)"
fill="#000000" stroke="none">
<path d="M1433 2753 c37 -2 97 -2 135 0 37 2 6 3 -68 3 -74 0 -105 -1 -67 -3z"/>
<path d="M1328 2743 c6 -2 18 -2 25 0 6 3 1 5 -13 5 -14 0 -19 -2 -12 -5z"/>
<path d="M1648 2743 c6 -2 18 -2 25 0 6 3 1 5 -13 5 -14 0 -19 -2 -12 -5z"/>
<path d="M1240 2730 c-20 -6 -21 -8 -5 -8 11 0 34 4 50 8 27 7 27 8 5 8 -14 0
-36 -4 -50 -8z"/>
<path d="M1715 2730 c17 -4 39 -8 50 -8 16 0 15 2 -5 8 -14 4 -36 8 -50 8 -22
0 -22 -1 5 -8z"/>
<path d="M1131 2709 c-18 -6 -32 -12 -30 -13 8 -7 69 7 69 15 0 5 -1 9 -2 8
-2 0 -18 -5 -37 -10z"/>
<path d="M1188 2713 c7 -3 16 -2 19 1 4 3 -2 6 -13 5 -11 0 -14 -3 -6 -6z"/>
<path d="M1330 2713 c-14 -2 -69 -15 -122 -28 -433 -107 -769 -442 -885 -882
-37 -144 -44 -376 -14 -522 26 -124 52 -202 99 -296 94 -190 235 -357 392
-464 225 -154 436 -221 700 -221 480 0 897 267 1100 703 49 106 65 154 90 276
25 122 27 310 5 437 -57 323 -250 620 -518 798 -221 145 -427 207 -684 205
-76 -1 -149 -4 -163 -6z m340 -27 c14 -4 45 -9 70 -13 99 -12 277 -84 400
-162 135 -85 281 -226 340 -329 8 -15 21 -33 29 -41 21 -23 103 -198 105 -225
0 -13 3 -22 5 -20 7 7 31 -70 26 -83 -2 -7 0 -13 4 -13 9 0 16 -30 28 -119 11
-76 14 -303 3 -296 -6 4 -8 -5 -4 -23 6 -30 -13 -122 -48 -230 -23 -72 -119
-265 -147 -296 -10 -12 -22 -28 -27 -37 -16 -29 -92 -109 -104 -109 -6 0 -9
-4 -6 -9 7 -11 -119 -121 -189 -167 -104 -66 -230 -119 -380 -160 -49 -14
-100 -23 -112 -21 -13 2 -23 0 -23 -5 0 -5 -67 -7 -162 -5 -152 4 -266 22
-338 54 -19 8 -19 8 -55 18 -16 4 -34 11 -40 15 -5 4 -35 18 -65 31 -56 23
-154 82 -178 106 -7 7 -18 13 -23 13 -5 0 -9 7 -9 16 0 8 -4 12 -10 9 -12 -7
-212 193 -205 206 4 5 2 9 -4 9 -24 0 -157 243 -144 263 4 6 1 7 -7 2 -10 -6
-12 -1 -8 18 3 15 1 24 -3 21 -9 -5 -47 113 -52 161 -2 17 -7 37 -12 45 -14
22 -15 302 -1 319 8 11 8 13 0 8 -9 -5 -9 3 -3 31 5 20 11 53 14 72 9 66 27
130 35 125 5 -3 6 5 2 17 -3 13 -1 19 5 15 6 -4 14 0 17 9 3 8 2 12 -4 9 -5
-3 -3 11 4 32 22 60 38 93 48 93 4 0 8 8 8 18 0 9 11 34 25 54 14 20 25 40 25
43 0 6 39 58 90 119 58 70 197 198 216 199 5 0 14 5 19 12 6 7 26 21 45 31 19
11 37 22 40 25 8 11 90 50 90 43 0 -3 7 1 15 9 11 12 125 54 165 62 3 1 19 4
35 8 17 4 44 9 60 12 17 3 46 9 65 14 39 10 292 8 330 -3z"/>
<path d="M1350 2661 c-25 -5 -70 -12 -100 -16 -67 -9 -253 -83 -335 -132 -114
-69 -255 -191 -315 -271 -14 -19 -30 -40 -37 -47 -16 -17 -67 -99 -95 -152
-12 -24 -26 -43 -31 -43 -4 0 -6 -4 -3 -8 4 -8 -36 -131 -51 -156 -4 -5 -8
-19 -9 -31 -2 -11 -9 -60 -18 -110 -26 -156 -14 -359 31 -515 28 -99 127 -305
163 -340 3 -3 31 -37 62 -76 60 -74 119 -128 209 -193 30 -22 61 -45 70 -53
42 -36 300 -138 350 -138 11 0 19 -3 19 -8 0 -10 99 -17 245 -17 143 0 245 7
245 17 0 8 78 24 93 20 4 -1 7 2 7 7 0 5 15 12 33 16 17 3 82 31 143 62 105
52 149 82 251 171 57 50 181 197 201 239 9 18 19 33 22 33 4 0 15 18 25 40 10
22 22 37 28 33 6 -3 7 -1 3 5 -4 7 0 26 8 44 70 157 103 345 93 538 -7 118 -9
130 -54 285 -63 213 -222 435 -414 578 -42 31 -79 57 -82 57 -4 0 -21 10 -39
23 -19 12 -78 40 -133 61 -55 21 -109 42 -120 47 -67 27 -372 46 -465 30z
m287 -22 c271 -37 496 -151 684 -346 272 -285 376 -670 284 -1053 -166 -684
-915 -1056 -1557 -775 -331 145 -569 429 -653 779 -93 382 16 775 293 1059
103 105 197 172 335 237 194 92 409 127 614 99z"/>
<path d="M1435 2017 c-11 -7 -42 -21 -70 -31 -27 -10 -69 -26 -92 -37 -24 -10
-47 -19 -53 -19 -6 0 -19 -4 -30 -10 -11 -5 -29 -14 -40 -20 -11 -5 -24 -10
-30 -10 -5 0 -33 -11 -62 -24 -29 -12 -61 -26 -70 -29 -17 -6 -18 -29 -18
-284 l0 -278 311 -153 c276 -136 313 -152 328 -139 9 8 111 77 226 154 l210
141 -3 275 -3 275 -32 12 c-18 7 -45 18 -62 25 -16 7 -41 16 -55 20 -14 3 -34
10 -45 15 -11 5 -78 30 -150 55 -71 25 -144 53 -162 61 -39 18 -73 18 -98 1z
m100 -26 c51 -23 101 -41 125 -46 17 -3 59 -18 85 -30 25 -12 52 -22 75 -30 3
-1 19 -5 35 -9 17 -5 48 -17 71 -27 22 -10 50 -19 61 -19 12 0 24 -7 27 -16 3
-9 6 -131 6 -272 l-1 -257 -201 -135 c-111 -74 -210 -138 -221 -143 -14 -5
-54 10 -143 53 -67 33 -127 60 -133 60 -6 0 -11 4 -11 8 0 5 -18 15 -40 22
-22 7 -40 17 -40 22 0 4 -6 8 -12 8 -11 0 -87 37 -196 94 l-32 18 2 266 3 266
26 6 c14 4 41 14 60 23 19 8 52 21 74 28 22 6 42 15 45 18 3 3 37 17 75 30 39
13 86 30 105 38 19 8 44 19 55 24 44 18 58 18 100 0z"/>
<path d="M1415 1950 c-22 -10 -43 -16 -47 -14 -5 3 -8 0 -8 -5 0 -16 34 -13
80 5 40 16 42 16 148 -21 59 -20 115 -41 124 -46 10 -5 25 -9 33 -9 8 0 23 -4
33 -9 9 -5 31 -14 47 -21 17 -7 38 -16 47 -21 24 -12 75 -12 62 0 -5 5 -43 21
-84 34 -41 14 -93 32 -115 40 -22 8 -49 18 -60 23 -11 4 -26 8 -33 10 -8 1
-30 10 -49 19 -20 10 -46 18 -59 19 -13 0 -24 4 -24 9 0 13 -55 6 -95 -13z"/>
<path d="M1225 1874 c-33 -14 -71 -30 -85 -36 -14 -6 -20 -12 -13 -15 15 -5
135 37 145 51 6 9 22 5 80 -25 10 -5 23 -9 28 -9 6 0 30 -9 52 -20 23 -11 45
-20 50 -20 5 0 27 -8 51 -19 116 -52 213 -84 261 -87 46 -2 61 2 101 27 62 39
50 49 -18 15 -56 -27 -86 -32 -103 -17 -5 5 -38 19 -74 31 -36 12 -83 31 -104
41 -22 11 -45 19 -51 19 -6 0 -30 9 -53 20 -22 11 -48 20 -57 20 -8 0 -15 4
-15 9 0 5 -18 11 -40 15 -29 4 -39 10 -34 19 6 9 3 8 -8 -1 -11 -9 -18 -10
-23 -2 -9 15 -23 12 -90 -16z"/>
<path d="M1033 1785 c-10 -10 -13 -72 -13 -230 0 -182 3 -220 16 -240 9 -14
23 -25 30 -25 8 0 14 -4 14 -10 0 -5 6 -10 13 -10 6 0 66 -27 132 -60 65 -33
125 -60 132 -60 7 0 13 -3 13 -7 0 -9 48 -33 66 -33 7 0 14 -3 16 -7 4 -10
111 -63 127 -63 7 0 10 4 7 9 -7 10 -508 261 -523 261 -20 0 -23 31 -23 251 0
204 1 219 18 219 10 0 22 -4 28 -8 5 -5 36 -19 69 -31 91 -34 97 -37 135 -53
20 -9 67 -28 105 -43 86 -32 143 -54 173 -66 l22 -9 0 -250 c0 -137 4 -250 8
-250 12 0 20 250 13 393 -3 64 -2 117 2 117 19 0 123 55 145 77 12 13 21 23
18 23 -3 0 -41 -19 -84 -42 l-79 -41 -199 77 c-215 84 -224 87 -269 106 -47
19 -98 21 -112 5z"/>
<path d="M1813 1640 c-49 -28 -73 -54 -73 -79 0 -6 17 6 38 27 21 21 52 44 70
51 18 7 32 17 32 22 0 14 -12 11 -67 -21z"/>
<path d="M1898 1639 c-3 -26 -92 -99 -120 -99 -10 0 -18 -4 -18 -10 0 -5 11
-10 25 -10 14 0 25 5 25 10 0 6 5 10 10 10 6 0 25 10 44 22 35 23 58 68 46 89
-6 8 -9 5 -12 -12z"/>
<path d="M2072 1218 c-6 -6 -8 -18 -3 -27 5 -9 14 -46 21 -83 12 -59 15 -65
31 -55 13 8 15 16 9 28 -14 25 47 71 72 55 14 -8 22 -7 35 7 16 16 16 17 1 17
-10 0 -43 16 -75 35 -63 38 -73 41 -91 23z m63 -40 c24 -11 24 -12 9 -30 -24
-25 -31 -23 -36 12 -3 17 -3 30 -2 30 2 0 15 -5 29 -12z"/>
<path d="M1856 1051 c-20 -16 -37 -32 -37 -35 1 -4 21 -33 45 -67 l44 -60 46
44 c56 53 62 93 20 126 -37 29 -75 26 -118 -8z m96 -18 c25 -23 23 -48 -9 -77
l-26 -24 -28 41 -29 42 21 18 c27 21 47 22 71 0z"/>
<path d="M1693 928 c-7 -9 3 -30 37 -74 39 -51 50 -59 62 -50 14 10 10 20 -28
71 -50 66 -57 71 -71 53z"/>
<path d="M1798 2713 c7 -3 16 -2 19 1 4 3 -2 6 -13 5 -11 0 -14 -3 -6 -6z"/>
<path d="M1830 2709 c0 -5 9 -9 19 -9 30 0 225 -85 275 -120 28 -19 43 -25 40
-15 -3 8 -10 15 -15 15 -4 0 -24 11 -43 24 -33 22 -188 89 -248 107 -17 4 -28
4 -28 -2z"/>
<path d="M987 2650 c-49 -21 -97 -46 -106 -54 -10 -9 -22 -16 -28 -16 -6 0
-14 -7 -17 -16 -4 -11 5 -8 30 11 19 15 77 45 127 67 51 22 94 42 96 44 11 11
-22 -1 -102 -36z"/>
<path d="M770 2524 c-55 -44 -56 -44 -44 -44 5 0 29 18 54 40 56 49 50 51 -10
4z"/>
<path d="M2180 2556 c0 -7 91 -78 95 -74 3 2 -18 21 -45 41 -28 21 -50 36 -50
33z"/>
<path d="M615 2388 c-50 -50 -72 -76 -50 -57 43 37 151 149 144 149 -3 0 -45
-41 -94 -92z"/>
<path d="M2311 2454 c40 -44 105 -108 135 -134 16 -13 -11 17 -61 68 -49 51
-92 92 -94 92 -2 0 6 -12 20 -26z"/>
<path d="M487 2240 c-21 -28 -36 -50 -33 -50 7 0 78 91 74 95 -2 3 -21 -18
-41 -45z"/>
<path d="M2470 2285 c0 -6 19 -30 41 -55 l41 -45 -33 45 c-43 59 -49 66 -49
55z"/>
<path d="M2568 2140 c16 -22 46 -81 67 -130 21 -50 40 -89 42 -86 6 5 -73 185
-90 204 -8 10 -17 25 -20 35 -4 9 -11 17 -18 17 -6 0 3 -18 19 -40z"/>
<path d="M425 2152 c-36 -65 -77 -154 -72 -158 2 -3 12 14 21 38 10 24 29 60
42 81 14 21 24 43 22 48 -2 5 -8 1 -13 -9z"/>
<path d="M332 1955 c-17 -37 -14 -45 4 -12 9 16 14 31 11 33 -2 2 -9 -7 -15
-21z"/>
<path d="M305 1889 c-10 -30 -2 -32 12 -3 6 13 7 24 3 24 -5 0 -12 -9 -15 -21z"/>
<path d="M2681 1905 c1 -19 18 -51 18 -35 0 8 -4 22 -9 30 -5 8 -9 11 -9 5z"/>
<path d="M290 1839 c0 -5 5 -7 10 -4 6 3 10 8 10 11 0 2 -4 4 -10 4 -5 0 -10
-5 -10 -11z"/>
<path d="M2695 1840 c3 -5 8 -10 11 -10 2 0 4 5 4 10 0 6 -5 10 -11 10 -5 0
-7 -4 -4 -10z"/>
<path d="M275 1750 c-4 -23 -5 -43 -2 -46 2 -3 7 14 11 37 4 23 5 44 2 46 -2
2 -7 -14 -11 -37z"/>
<path d="M2712 1775 c0 -11 4 -33 8 -50 7 -27 8 -27 8 -5 0 14 -4 36 -8 50 -6
20 -8 21 -8 5z"/>
<path d="M262 1670 c0 -14 2 -19 5 -12 2 6 2 18 0 25 -3 6 -5 1 -5 -13z"/>
<path d="M2732 1670 c0 -14 2 -19 5 -12 2 6 2 18 0 25 -3 6 -5 1 -5 -13z"/>
<path d="M254 1510 c0 -74 1 -105 3 -67 2 37 2 97 0 135 -2 37 -3 6 -3 -68z"/>
<path d="M2744 1510 c0 -74 1 -105 3 -67 2 37 2 97 0 135 -2 37 -3 6 -3 -68z"/>
<path d="M262 1350 c0 -14 2 -19 5 -12 2 6 2 18 0 25 -3 6 -5 1 -5 -13z"/>
<path d="M2732 1350 c0 -14 2 -19 5 -12 2 6 2 18 0 25 -3 6 -5 1 -5 -13z"/>
<path d="M272 1295 c0 -16 2 -22 5 -12 2 9 2 23 0 30 -3 6 -5 -1 -5 -18z"/>
<path d="M2716 1279 c-4 -23 -5 -44 -2 -46 2 -2 7 14 11 37 4 23 5 43 2 46 -2
3 -7 -14 -11 -37z"/>
<path d="M281 1244 c0 -11 3 -14 6 -6 3 7 2 16 -1 19 -3 4 -6 -2 -5 -13z"/>
<path d="M291 1205 c-1 -22 19 -99 24 -93 2 1 -3 28 -10 58 -7 30 -14 46 -14
35z"/>
<path d="M2701 1204 c0 -11 3 -14 6 -6 3 7 2 16 -1 19 -3 4 -6 -2 -5 -13z"/>
<path d="M2691 1153 c-1 -6 -4 -20 -7 -30 -5 -17 -5 -17 6 0 6 10 9 23 6 30
-3 9 -5 9 -5 0z"/>
<path d="M320 1099 c0 -30 101 -237 122 -250 5 -3 9 -10 9 -15 0 -5 12 -24 27
-43 15 -19 32 -41 39 -50 7 -9 13 -12 13 -8 0 9 -59 88 -75 99 -5 4 -6 8 -1 8
4 0 -4 16 -19 36 -15 19 -45 77 -67 127 -37 86 -48 108 -48 96z"/>
<path d="M2666 1085 c-9 -26 -7 -32 5 -12 6 10 9 21 6 23 -2 3 -7 -2 -11 -11z"/>
<path d="M2624 984 c-15 -37 -41 -84 -56 -105 -16 -22 -25 -39 -21 -39 5 0 3
-4 -2 -8 -11 -8 -56 -68 -70 -92 -11 -20 2 -6 48 51 20 26 33 49 30 53 -4 3
-2 6 4 6 13 0 109 187 101 195 -3 3 -18 -24 -34 -61z"/>
<path d="M609 638 c46 -48 101 -99 123 -115 21 -15 50 -38 65 -50 34 -28 163
-96 232 -122 86 -33 70 -17 -19 19 -45 18 -97 43 -116 56 -19 13 -39 24 -43
24 -5 0 -24 12 -44 28 -19 15 -48 36 -64 47 -15 11 -53 44 -83 74 -100 99
-137 126 -51 39z"/>
<path d="M2375 632 c-49 -48 -103 -96 -118 -107 -16 -11 -45 -32 -64 -47 -20
-16 -40 -28 -45 -28 -5 0 -22 -10 -38 -21 -15 -12 -88 -46 -162 -75 -73 -30
-128 -54 -122 -54 43 0 304 119 368 168 19 15 53 40 74 55 37 27 212 197 202
197 -3 0 -45 -40 -95 -88z"/>
<path d="M1125 315 c17 -8 37 -14 45 -14 8 0 -1 7 -20 14 -46 18 -64 17 -25 0z"/>
<path d="M1190 300 c0 -5 5 -10 10 -10 6 0 10 5 10 10 0 6 -4 10 -10 10 -5 0
-10 -4 -10 -10z"/>
<path d="M1790 299 c0 -5 5 -7 10 -4 6 3 10 8 10 11 0 2 -4 4 -10 4 -5 0 -10
-5 -10 -11z"/>
<path d="M1240 290 c14 -4 36 -8 50 -8 22 0 22 1 -5 8 -16 4 -39 8 -50 8 -16
0 -15 -2 5 -8z"/>
<path d="M1690 285 c-30 -7 -44 -13 -30 -13 14 0 48 6 75 13 65 16 27 17 -45
0z"/>
<path d="M1328 273 c6 -2 18 -2 25 0 6 3 1 5 -13 5 -14 0 -19 -2 -12 -5z"/>
<path d="M1433 263 c37 -2 97 -2 135 0 37 2 6 3 -68 3 -74 0 -105 -1 -67 -3z"/>
</g>
</svg>
